# xmcd
#
# Track frame offsets:
#	150
#	16204
#	30150
#	42530
#	56009
#
# Disc length: 891 seconds
#
# Revision: 0
# Processed by: cddbd v1.5.2PL0 Copyright (c) Steve Scherf et al.
# Submitted via: audiograbber 1.83.01
#
DISCID=34037905
DTITLE=Big B and his Snakeoil Saviors - Big B and his Snakeoil Saviors
DYEAR=2007
DGENRE=Honky Tonk - Swing - Boogie
TTITLE0=Big River
TTITLE1=Who Walks in When I Walk Out
TTITLE2=Eating Right Out of Your Hand
TTITLE3=False Hearted Girl
TTITLE4=Man With the Blues
EXTD=Ben Buettner fronts this dynamic California based band that specializes in
EXTD=old-school honky tonk and hillbilly boogie. 
EXTT0=
EXTT1=
EXTT2=
EXTT3=
EXTT4=
PLAYORDER=
